<svg width="60" height="59" viewBox="0 0 60 59" fill="none" xmlns="http://www.w3.org/2000/svg">
<path d="M28.6406 25.9969C28.6406 22.3785 31.6172 19.4516 35.2969 19.4516C38.9766 19.4516 41.9531 22.3785 41.9531 25.9969C41.9531 29.6152 38.9766 32.5422 35.2969 32.5422C31.6172 32.5422 28.6406 29.6152 28.6406 25.9969ZM7.61719 11.1547L15.2578 13.8281L60 0.115234L44.1562 0.0230469L7.61719 11.1547ZM49.3125 55.5891L48.4688 13.8281L47.2031 13.8512L48.0469 55.6121L49.3125 55.5891ZM16.0078 34.6625L15.6563 11.8922L14.3906 11.9152L14.7422 34.6855L16.0078 34.6625ZM9.28125 45.6328L9.09375 11.2238H7.82813L8.01563 45.6559L9.28125 45.6328ZM48.6797 52.2934H40.5L38.2266 39.341C37.6406 36.8289 33.1641 33.6484 30.4922 33.6484H16.3594C15.375 33.6484 14.4141 34.1555 13.875 34.9852L8.27344 44.6188C7.42969 45.9555 7.96875 47.6609 9.30469 48.4676C10.5234 49.2281 12.3281 48.7672 13.2188 47.4996L18 39.341H25.4063L16.2891 54.8055C15.7031 55.7734 15.4219 56.8797 15.4219 57.9629L29.3672 58.1012L33.9375 50.0348L34.8984 55.8195C35.2734 57.0871 36.4453 57.9629 37.8047 57.9629H48.7031C50.3203 58.009 51.5156 56.8105 51.5859 55.2664C51.6328 53.8605 50.2266 52.4316 48.6797 52.2934ZM30.2109 0H18.5391L43.4531 15.5105L52.7812 14.5887L30.2109 0Z" fill="#8EA5F3"/>
</svg>
